<?xml version="1.0" encoding="UTF-8" standalone="yes"?>
<svg viewBox="0 0 256 256" version="1.2" baseProfile="tiny-ps" xmlns="http://www.w3.org/2000/svg">
  <title>bimi-svg-tiny-12-ps</title>
  <path d="M.05,128Q.05,65,0,2C0,.33.34,0,2,0Q128,.08,254,0c1.7,0,2,.33,2,2q-.08,126,0,251.92c0,1.7-.33,2-2,2Q128,255.93,2,256c-1.7,0-2-.33-2-2Q.09,191,.05,128Z" fill="#fefefe"/>
  <path d="M12.78,127.77C12.62,64.15,64.66,12.11,129,12.75a115,115,0,1,1-116.2,115Z" fill="#2b2b2b"/>
  <path d="M118.5,34.39c6.81,0,13.19,0,19.57,0,1.46,0,1.66,1.21,2.17,2.08q23,39.64,45.89,79.32Q200,139.7,213.8,163.63a4.43,4.43,0,0,1,1,2.21c-2.18.31-121.89.45-127.09.15-.31-.85.36-1.4.7-2,2.63-4.71,5.39-9.35,7.93-14.11a4.12,4.12,0,0,1,4.24-2.51c25.84.08,51.69,0,77.54,0,4.56,0,4.6-.07,2.41-3.91L119.88,37.05C119.48,36.34,119.13,35.6,118.5,34.39Z" fill="#c0a9d3"/>
  <path d="M179.65,145.63H159.83c-1.41,0-1.61-1.32-2.11-2.19q-13.28-22.82-26.49-45.69-6.67-11.53-13.36-23.07c-1.4-2.41-1.88-2.42-3.26,0L55.93,176.53c-1.53,2.66-3.07,5.31-4.58,7.92-.9.07-1-.65-1.26-1.09-3-5-5.86-10-8.88-15a3,3,0,0,1,0-3.61q26.64-45.61,53.2-91.26Q105,55.3,115.64,37.12c.29-.5.59-1,1.14-1.9C137.77,72.07,158.6,108.66,179.65,145.63Z" fill="#5cb5c3"/>
  <path d="M85.42,167.83l79.26,0H214.5c.49.72-.08,1.14-.35,1.6-2.93,4.92-5.9,9.82-8.81,14.75a2.39,2.39,0,0,1-2.28,1.5q-20.7-.1-41.39-.12c-.67-1.69.73-2.43,1.67-3.17,4.57-3.56,9-7.23,13.65-10.75a9.92,9.92,0,0,0,2.85-2.68,48.12,48.12,0,0,0-7.83-.15c-2.48.08-4.95.08-7.43.05s-4.94.11-7.42,0c-2.83,0-5.67.11-8.5,0-4.8.11-9.59.07-14.39,0-3.83,0-7.67.1-11.51,0-5,0-9.93.07-14.9,0-3.82-.05-7.64.08-11.46,0-2.73-.07-5.47.1-8.2,0C87.18,168.86,86,169.13,85.42,167.83Z" fill="#b0e0d2"/>
  <path d="M61.35,171q4.4-8.43,9.47-16.46c4.16-2.62,7.81-5.9,11.72-8.84,4.92-3.7,9.45-7.87,14.56-11.35a37.81,37.81,0,0,0,6.41-5.23c.72-.77,1.64-2.4,3.2-.91l-9.52,16.44c-6.69,5-13.12,10.35-19.72,15.47-4.57,3.56-9,7.25-13.65,10.76C63.15,171.43,62.25,172.84,61.35,171Z" fill="#d3e2ba"/>
  <path d="M89.72,121.73c3-5.63,6.12-11.17,9.54-16.55,6.35-4.49,12.25-9.55,18.4-14.31a60.57,60.57,0,0,1,5.08-4,36.93,36.93,0,0,1,3.59,6.25c0,1.35-.94,2-1.83,2.72q-15.93,12.72-32,25.28C91.71,121.82,90.88,122.72,89.72,121.73Z" fill="#dce3b3"/>
  <path d="M91.42,154.71q-2.83,5.17-5.69,10.35a3.71,3.71,0,0,0-.84,2.5c.66,1.72-.77,2.33-1.74,3.1-6.25,5-12.61,9.81-18.75,14.93H53.1a4.2,4.2,0,0,1,1.3-2.51c7.58-6.57,15.71-12.46,23.48-18.8,3.59-2.94,7.32-5.71,10.93-8.62C89.56,155.06,90.26,154.21,91.42,154.71Z" fill="#cee2bd"/>
  <path d="M134.19,168.25h14.55c1.22,1,.24,1.6-.42,2.1-6.24,4.76-12.28,9.78-18.49,14.57-.48.36-1.1.34-1.58.68H112.79c-.25-.84.4-1.2.89-1.6,6.13-5,12.35-9.81,18.54-14.69A13.28,13.28,0,0,1,134.19,168.25Z" fill="#bde1c9"/>
  <path d="M107.75,168.25h15c.17,1.47-1.07,1.93-1.93,2.62-6.16,4.91-12.45,9.66-18.48,14.73h-16c-.26-1.18.71-1.58,1.38-2.1,6.06-4.7,12.1-9.41,18-14.27A14.06,14.06,0,0,1,107.75,168.25Z" fill="#c5e1c4"/>
  <path d="M106.71,128.24c-1.1-.65-1.93.32-2.33.84-1.77,2.33-4.4,3.69-6.52,5.57-1.59,1.41-4.06,2.44-5.53,4-3.24,3.56-7.71,5.47-11,9.08-2.5,2.76-6.28,4.53-9.31,7-.49.39-.88.37-1.21-.19a96.77,96.77,0,0,1,6-10.45c11.19-8.79,22.3-17.69,33.53-26.44,1-.81,1.86-2.19,3.53-1.88C111.72,120.07,109.28,124.19,106.71,128.24Z" fill="#d6e2b8"/>
  <path d="M89.72,121.73c2.89-.42,4.58-2.75,6.67-4.35,7.71-5.93,15.31-12,22.87-18.1,2.42-2,5.21-3.5,7.07-6.11.52.38.41.8.13,1.28q-3.1,5.17-6.19,10.35c-4.42,4.54-9.66,8.08-14.57,12q-10.08,8.1-20.32,16c-.73.57-1.36,1.62-2.56.88A125.08,125.08,0,0,1,89.72,121.73Z" fill="#d9e2b5"/>
  <path d="M82.82,133.73c3.21-1.57,5.7-4.12,8.48-6.26,8.6-6.65,17-13.48,25.58-20.21,1.09-.86,2-2,3.39-2.46a105.57,105.57,0,0,1-6.38,11q-11.11,8.69-22.23,17.38c-4.35,3.42-8.63,6.93-13,10.31-.42.32-.91,1.38-1.82.63A92.35,92.35,0,0,1,82.82,133.73Z" fill="#d8e2b7"/>
  <path d="M91.42,154.71c-4.19,2.51-7.78,5.81-11.61,8.8C71.49,170,63.28,176.65,55,183.23c-.23.18-.45.09-.61-.15a124.21,124.21,0,0,1,7-12.05c.61,1,1.07.25,1.57-.14Q76.09,160.45,89.25,150c1.94-1.53,3.81-3.16,5.8-4.62.56-.4,1.14-1.37,2.14-.73A110.79,110.79,0,0,1,91.42,154.71Z" fill="#d1e2bc"/>
  <path d="M107.75,168.25c-4.26,3.93-9.15,7.07-13.52,10.86-2.57,2.23-5.69,3.8-7.88,6.48H74.88c-.25-.84.4-1.2.89-1.6,6.12-5,12.35-9.81,18.54-14.69a12.8,12.8,0,0,1,2-1.05Z" fill="#c8e1c2"/>
  <path d="M96.28,168.25C93,171.56,89,174.07,85.4,177.09s-7,5.67-10.52,8.5H64.4c.44-2.25,2.61-2.92,4.06-4.12,4.88-4,10-7.81,15-11.71a2.89,2.89,0,0,0,1.45-2.2l.53.27C89,168.62,92.67,167.84,96.28,168.25Z" fill="#cbe2bf"/>
  <path d="M102.31,185.59c.62-2.35,2.89-3.09,4.49-4.4,4.84-4,9.86-7.76,14.79-11.64a8.38,8.38,0,0,0,1.13-1.31h11.47c-3.33,3.31-7.31,5.82-10.88,8.84s-7,5.67-10.52,8.5Z" fill="#c1e1c7"/>
  <path d="M122.74,86.92c-1,2.32-3.37,3.27-5.15,4.75-5.39,4.48-11,8.73-16.47,13-.52.4-1,1.23-1.86.46,2.8-5.4,5.86-10.65,9.08-15.82,3.28-1.8,5.84-4.55,8.88-6.67.74-.51,1.38-1.59,2.56-.84A25,25,0,0,1,122.74,86.92Z" fill="#dfe3b1"/>
  <path d="M172.61,168.24c2.23,0,4.47-.07,6.71-.07.54,0,1.3-.26,1.53.45s-.43,1-.85,1.38c-2.86,2.36-5.73,4.72-8.65,7-2.4,1.88-4.92,3.61-7.28,5.55-1,.8-2.22,1.54-2.4,3l-10.47,0c-.11-1,.79-1.41,1.37-1.89,5.88-4.85,12-9.44,17.86-14.25A12.83,12.83,0,0,1,172.61,168.24Z" fill="#b4e0d0"/>
  <path d="M172.61,168.24c-2.89,2.42-5.75,4.88-8.68,7.24-4.22,3.4-8.48,6.74-12.73,10.1h-8c-.26-1.17.7-1.58,1.37-2.1,5.86-4.57,11.62-9.24,17.45-13.83a12.24,12.24,0,0,1,2.58-1.41Z" fill="#b6e0ce"/>
  <path d="M164.62,168.25c-6.61,5.27-13.21,10.56-19.83,15.81a4.88,4.88,0,0,0-1.57,1.53h-7.48c-.26-1.17.7-1.57,1.37-2.11,5.81-4.76,11.76-9.33,17.61-14a6.86,6.86,0,0,1,2.4-1.2Z" fill="#b8e0cd"/>
  <path d="M157.12,168.25q-10.31,8.17-20.62,16.38a5.54,5.54,0,0,0-.76,1h-7.49c6.46-5.46,13.06-10.75,19.9-15.71.57-.42,1-.86.59-1.64Z" fill="#bae1cc"/>
  <path d="M119.78,81.85c-3.38,1.63-5.89,4.42-8.85,6.62-.79.59-1.43,1.46-2.59.89l7.73-13.81A30.86,30.86,0,0,1,119.78,81.85Z" fill="#e0e2af"/>
</svg>